<svg xmlns="http://www.w3.org/2000/svg" width="42.35" height="52.737" viewBox="0 0 42.35 52.737">
  <g id="Group_2809" data-name="Group 2809" transform="translate(-846.207 -69.27)">
    <g id="Group_2807" data-name="Group 2807" transform="translate(857.895 98.935)">
      <path id="Path_15708" data-name="Path 15708" d="M1016.151,546.177a3.56,3.56,0,0,0-3.283-.17c-1.331.9-1.448.582-.731-.382a4.371,4.371,0,0,1,1.038-1.165,1.943,1.943,0,0,1,2.447.171,6.5,6.5,0,0,1,1.2,1.168C1017.206,546.239,1017.175,546.69,1016.151,546.177Z" transform="translate(-1011.373 -543.769)" fill="#048FD9"/>
      <path id="Path_15709" data-name="Path 15709" d="M1007.617,542.655a.422.422,0,0,1-.321-.134c-.271-.284-.046-.722.377-1.291a4.708,4.708,0,0,1,1.1-1.234,2.24,2.24,0,0,1,2.85.164,6.585,6.585,0,0,1,1.181,1.132l.069.082c.314.361.392.718.207.956-.316.407-1.01.059-1.272-.072a3.212,3.212,0,0,0-2.973-.178A2.691,2.691,0,0,1,1007.617,542.655Zm2.453-1.518a4.533,4.533,0,0,1,2.033.537h0c.11.055.2.094.274.123l-.074-.088a5.985,5.985,0,0,0-1.073-1.028,1.645,1.645,0,0,0-2.043-.178,4.061,4.061,0,0,0-.967,1.085l-.015.022c-.049.065-.091.125-.128.178.112-.065.248-.151.414-.263a.334.334,0,0,1,.039-.022A3.448,3.448,0,0,1,1010.07,541.137Z" transform="translate(-1007.178 -539.558)" fill="#048FD9"/>
    </g>
    <g id="Group_2808" data-name="Group 2808" transform="translate(872.852 98.935)">
      <path id="Path_15710" data-name="Path 15710" d="M1222.147,546.177a3.56,3.56,0,0,0-3.283-.17c-1.331.9-1.448.582-.731-.382a4.371,4.371,0,0,1,1.038-1.165,1.943,1.943,0,0,1,2.447.171,6.509,6.509,0,0,1,1.2,1.168C1223.2,546.239,1223.171,546.69,1222.147,546.177Z" transform="translate(-1217.369 -543.769)" fill="#048FD9"/>
      <path id="Path_15711" data-name="Path 15711" d="M1213.613,542.655a.422.422,0,0,1-.321-.134c-.271-.284-.046-.722.377-1.291a4.708,4.708,0,0,1,1.1-1.234,2.24,2.24,0,0,1,2.85.164,6.6,6.6,0,0,1,1.181,1.132l.068.082c.314.361.392.718.207.956-.316.407-1.011.059-1.272-.072h0a3.211,3.211,0,0,0-2.973-.178A2.691,2.691,0,0,1,1213.613,542.655Zm4.485-.981c.11.055.2.094.274.123l-.074-.088a5.988,5.988,0,0,0-1.073-1.028,1.645,1.645,0,0,0-2.043-.178,4.068,4.068,0,0,0-.967,1.085l-.015.022c-.049.065-.091.125-.128.178.112-.065.248-.151.414-.263a.367.367,0,0,1,.038-.022,3.817,3.817,0,0,1,3.573.171Z" transform="translate(-1213.174 -539.558)" fill="#048FD9"/>
    </g>
    <path id="Path_15712" data-name="Path 15712" d="M869.9,141.543l-.009-2.583a4.374,4.374,0,1,0-4.913.076l-.061,2.5a21.172,21.172,0,1,0,4.983.006Zm-5.846-6.27a3.325,3.325,0,1,1,3.325,3.325A3.325,3.325,0,0,1,864.057,135.273Zm.85,6.8-.055,2.282a.361.361,0,0,0,.021.13c.018.051.468,1.26,2.51,1.26,2.5,0,2.53-1.419,2.53-1.481l-.008-2.181c2.384.495,4.061,1.669,4.061,3.041,0,1.818-2.947,3.292-6.583,3.292s-6.583-1.474-6.583-3.292C860.8,143.741,862.5,142.56,864.907,142.07ZM878.67,173.4a18.529,18.529,0,0,1-10.93,3.3c-5.976,0-9.088-.934-12.245-3.251-2.816-2.067-3.66-7.133-3.57-9.547.071-1.914.318-7.227,4.834-8.376a11.658,11.658,0,0,0-2.853,5.658c-.782,4.262.148,8.005,1.344,9.679a7.91,7.91,0,0,0,5.545,3.584,28.033,28.033,0,0,0,6.619.887c.685,0,1.415-.029,2.214-.091a15.408,15.408,0,0,0,7.335-2.043,20.259,20.259,0,0,0,5.322-4.334A8.477,8.477,0,0,1,878.67,173.4Zm-2.044-.845a14.656,14.656,0,0,1-7.055,1.962,25.512,25.512,0,0,1-8.618-.78c-3.285-.737-4.214-2.039-5.113-3.3-1.69-2.366-1.655-6.753-1.22-9.125a11.262,11.262,0,0,1,3.356-5.986,11.27,11.27,0,0,1,3.274.283,25.566,25.566,0,0,0,12.924-.308c4.5-.879,7.914.988,8.586,8.03a15.382,15.382,0,0,1-.074,3.874A19.547,19.547,0,0,1,876.627,172.558Z" transform="translate(0 -61.737)" fill="#048FD9"/>
  </g>
</svg>
